<?xml version="1.0" encoding="UTF-8" standalone="no"?>
<!-- Created with Inkscape (http://www.inkscape.org/) -->

<svg
   version="1.1"
   id="svg2"
   xml:space="preserve"
   width="288.09332"
   height="124.78667"
   viewBox="0 0 288.09332 124.78667"
   sodipodi:docname="joaopster-LOGO_Prancheta 1 cópia 5.eps"
   xmlns:inkscape="http://www.inkscape.org/namespaces/inkscape"
   xmlns:sodipodi="http://sodipodi.sourceforge.net/DTD/sodipodi-0.dtd"
   xmlns="http://www.w3.org/2000/svg"
   xmlns:svg="http://www.w3.org/2000/svg"><defs
     id="defs6" /><sodipodi:namedview
     id="namedview4"
     pagecolor="#ffffff"
     bordercolor="#666666"
     borderopacity="1.0"
     inkscape:pageshadow="2"
     inkscape:pageopacity="0.0"
     inkscape:pagecheckerboard="0" /><g
     id="g8"
     inkscape:groupmode="layer"
     inkscape:label="ink_ext_XXXXXX"
     transform="matrix(1.3333333,0,0,-1.3333333,0,124.78667)"><g
       id="g10"
       transform="scale(0.1)"><path
         d="m 337.086,376.465 c -6.895,0 -12.719,2.383 -17.481,7.137 -4.765,4.761 -7.144,10.945 -7.144,18.539 0,7.601 2.379,13.777 7.144,18.539 4.762,4.765 10.586,7.144 17.481,7.144 6.879,0 12.699,-2.379 17.465,-7.144 4.762,-4.762 7.144,-10.938 7.144,-18.539 0,-7.594 -2.382,-13.778 -7.144,-18.539 -4.766,-4.754 -10.586,-7.137 -17.465,-7.137"
         style="fill:#e01d25;fill-opacity:1;fill-rule:nonzero;stroke:none"
         id="path12" /><path
         d="m 530.371,581.602 c -3.043,0 -4.558,1.523 -4.558,4.554 v 26.297 c 0,3.035 1.515,4.559 4.558,4.559 h 21.875 c 3.047,0 4.559,-1.524 4.559,-4.559 v -26.297 c 0,-3.031 -1.512,-4.554 -4.559,-4.554 z m -62.91,-242.063 h 35.551 c 9.129,0 15.965,3.133 20.523,9.41 4.559,6.395 6.836,15.914 6.836,28.582 v 151.496 h -48.18 v 21.731 h 76.145 V 377.531 c 0,-9.633 -1.117,-18.289 -3.352,-25.996 -2.222,-7.687 -5.617,-14.273 -10.175,-19.758 -4.559,-5.468 -10.114,-9.48 -16.641,-12.07 -6.527,-2.586 -13.91,-3.883 -22.113,-3.883 h -38.594 v 23.715"
         style="fill:#040606;fill-opacity:1;fill-rule:nonzero;stroke:none"
         id="path14" /><path
         d="M 618.656,319.324 H 774.262 V 307.168 H 618.656 v 12.156"
         style="fill:#040606;fill-opacity:1;fill-rule:nonzero;stroke:none"
         id="path16" /><path
         d="m 904.332,399.863 c 13.57,0 23.758,5.52 30.551,16.563 6.777,11.039 10.172,27.402 10.172,49.082 0,21.676 -3.395,38.039 -10.172,49.082 -6.793,11.039 -16.981,16.562 -30.551,16.562 -13.57,0 -23.863,-5.523 -30.848,-16.562 -6.98,-11.145 -10.48,-27.5 -10.48,-49.082 0,-21.574 3.5,-37.887 10.48,-48.93 6.985,-11.144 17.278,-16.715 30.848,-16.715 z m -69.437,150.895 h 25.375 l 2.734,-21.731 c 4.762,8.512 10.98,14.946 18.687,19.297 7.704,4.36 16.672,6.535 26.903,6.535 10.129,0 19.246,-1.976 27.347,-5.925 8.102,-3.957 15.098,-9.93 20.965,-17.93 5.879,-8.004 10.262,-17.504 13.145,-28.492 2.894,-10.996 4.336,-23.426 4.336,-37.309 0,-27.859 -5.883,-49.64 -17.629,-65.34 -11.746,-15.804 -27.86,-23.699 -48.324,-23.699 -5.778,0 -10.793,0.578 -15.039,1.742 -4.25,1.168 -8.266,2.813 -12,4.938 -7.911,4.558 -14.04,10.937 -18.391,19.148 v -86.168 h -28.109 v 234.934"
         style="fill:#040606;fill-opacity:1;fill-rule:nonzero;stroke:none"
         id="path18" /><path
         d="m 1083.03,376.164 c -4.45,0 -9.04,0.227 -13.74,0.684 -4.72,0.453 -9.25,1.086 -13.6,1.894 -3.96,0.809 -8.59,1.926 -13.91,3.348 -5.32,1.418 -10.66,2.98 -16.03,4.711 v 28.867 c 6.47,-3.242 12,-5.75 16.56,-7.52 4.56,-1.773 9.01,-3.273 13.38,-4.484 4.64,-1.316 9.16,-2.332 13.52,-3.035 4.36,-0.715 8.85,-1.066 13.51,-1.066 12.27,0 21.84,2.527 28.73,7.593 3.55,2.637 6.13,5.727 7.75,9.27 1.62,3.551 2.43,7.144 2.43,10.789 0,7.094 -2.99,12.844 -8.96,17.246 -5.98,4.41 -15.4,7.926 -28.27,10.562 l -1.22,0.301 -10.48,2.133 c -7.6,1.516 -14.35,3.543 -20.29,6.078 -5.93,2.531 -10.91,5.824 -14.97,9.875 -7.39,7.395 -11.08,17.574 -11.08,30.543 0,8.203 1.38,15.449 4.17,21.731 2.8,6.277 6.91,11.597 12.38,15.957 5.78,4.652 12.68,8.027 20.67,10.101 8,2.078 16.97,3.117 26.91,3.117 4.35,0 8.7,-0.207 13.05,-0.609 4.37,-0.406 8.68,-1.016 12.93,-1.824 3.85,-0.809 7.88,-1.844 12.08,-3.11 4.19,-1.273 8.43,-2.765 12.69,-4.484 v -27.355 c -8.12,4.664 -16.17,8.152 -24.17,10.484 -4.04,1.117 -8.13,1.977 -12.23,2.586 -4.11,0.605 -8.49,0.914 -13.15,0.914 -5.88,0 -11.16,-0.508 -15.87,-1.523 -4.71,-1.012 -8.63,-2.536 -11.78,-4.555 -6.28,-4.156 -9.43,-10.492 -9.43,-18.996 0,-3.551 0.59,-6.793 1.75,-9.727 1.17,-2.941 2.92,-5.32 5.25,-7.144 2.33,-1.825 6.21,-3.625 11.62,-5.387 5.42,-1.781 13.14,-3.625 23.18,-5.551 l 11.23,-2.125 c 7.31,-1.426 13.53,-3.449 18.71,-6.078 5.16,-2.641 9.46,-5.883 12.9,-9.727 7.09,-7.808 10.65,-18.136 10.65,-31 0,-8.718 -1.55,-16.289 -4.63,-22.722 -3.11,-6.43 -7.53,-11.922 -13.31,-16.481 -6.17,-4.867 -13.39,-8.461 -21.65,-10.789 -8.25,-2.332 -17.35,-3.492 -27.28,-3.492"
         style="fill:#040606;fill-opacity:1;fill-rule:nonzero;stroke:none"
         id="path20" /><path
         d="m 1258.99,392.57 c -8.62,8.309 -12.93,22.797 -12.93,43.457 v 93 h -45.43 v 21.731 h 45.43 v 44.523 l 27.97,12.153 v -56.676 h 63.51 v -21.731 h -63.51 v -93 c 0,-12.457 2.38,-21.218 7.14,-26.285 4.66,-4.961 12.97,-7.445 24.92,-7.445 h 31.45 v -22.34 h -34.18 c -20.88,0 -35.67,4.203 -44.37,12.613"
         style="fill:#040606;fill-opacity:1;fill-rule:nonzero;stroke:none"
         id="path22" /><path
         d="m 1509.26,480.855 c -0.21,8.711 -1.35,16.188 -3.43,22.415 -2.07,6.234 -4.78,11.269 -8.13,15.121 -3.64,4.254 -8.14,7.445 -13.52,9.57 -5.37,2.133 -11.4,3.191 -18.07,3.191 -13.69,0 -24.83,-4.457 -33.43,-13.371 -8.72,-9.015 -13.88,-21.379 -15.51,-37.082 z m -38.3,-104.691 c -13.07,0 -24.79,1.996 -35.17,5.996 -10.39,4 -19.23,9.903 -26.52,17.703 -7.29,7.797 -12.83,17.192 -16.64,28.192 -3.8,10.988 -5.69,23.418 -5.69,37.304 0,14.286 1.91,26.817 5.76,37.61 3.85,10.781 9.18,19.976 15.97,27.578 7.39,8.207 16.05,14.305 25.98,18.312 9.92,4 20.61,6 32.06,6 11.34,0 21.29,-1.875 29.86,-5.625 8.56,-3.75 15.88,-9.168 21.95,-16.261 6.09,-7.086 10.72,-15.672 13.91,-25.75 3.19,-10.086 4.79,-21.606 4.79,-34.571 v -13.679 h -121.11 v -0.914 c 0,-18.539 4.86,-32.871 14.58,-43 4.66,-4.86 10.31,-8.61 16.95,-11.243 6.63,-2.636 14.56,-3.953 23.78,-3.953 9.21,0 18.59,1.418 28.11,4.254 9.83,2.942 20.21,7.242 31.15,12.918 v -27.808 c -5.37,-2.227 -10.59,-4.157 -15.64,-5.774 -5.08,-1.621 -10.09,-2.988 -15.06,-4.101 -4.85,-1.118 -9.72,-1.926 -14.58,-2.43 -4.87,-0.508 -9.68,-0.758 -14.44,-0.758"
         style="fill:#040606;fill-opacity:1;fill-rule:nonzero;stroke:none"
         id="path24" /><path
         d="m 1601.34,550.758 h 25.37 l 2.74,-33.281 c 4.76,12.058 11.95,21.328 21.58,27.808 9.53,6.383 20.92,9.574 34.2,9.574 6.88,0 13.36,-0.859 19.45,-2.582 2.92,-0.816 5.86,-1.902 8.8,-3.269 2.94,-1.367 5.72,-2.965 8.37,-4.785 v -28.567 c -5.78,4.66 -11.87,8.047 -18.25,10.18 -6.27,2.125 -13.11,3.191 -20.51,3.191 -17.31,0 -30.59,-5.468 -39.81,-16.414 -9.22,-10.836 -13.83,-26.64 -13.83,-47.41 v -84.637 h -28.11 v 170.192"
         style="fill:#040606;fill-opacity:1;fill-rule:nonzero;stroke:none"
         id="path26" /><path
         d="m 1823.35,618.379 h 26.14 V 307.168 h -26.14 v 311.211"
         style="fill:#040606;fill-opacity:1;fill-rule:nonzero;stroke:none"
         id="path28" /></g></g></svg>
